/* XPM */ 
static const char * to_left_xpm[] = {
"16 16 32 1",
" 	c None",
"!	c black",
"#	c #6598CC",
"$	c #6396CA",
"%	c #CCE5FF",
"&	c #5F92C5",
"'	c #5C8FC2",
"(	c #C8E3FF",
")	c #578ABD",
"*	c #C2E1FF",
"+	c #5386B9",
",	c #BCDEFF",
"-	c #4E81B4",
".	c #B5DAFF",
"0	c #497CAF",
"1	c #95BFEB",
"2	c #AED7FF",
"3	c #4477AA",
"4	c #8EBBEA",
"5	c #A7D3FF",
"6	c #4073A6",
"7	c #89B8E9",
"8	c #A1D0FF",
"9	c #3B6EA1",
":	c #84B5E8",
";	c #9CCEFF",
"<	c #386B9E",
"=	c #80B3E7",
">	c #98CCFF",
"?	c #34679A",
"@	c #7FB2E6",
"A	c #326598",
"                ",
"          ##    ",
"         $%$    ",
"        &%%&    ",
"       '%(('    ",
"      )%***)    ",
"     +%,,,,+    ",
"    -%.....-    ",
"    01222220    ",
"     3455553    ",
"      678886    ",
"       9:;;9    ",
"        <=><    ",
"         ?@?    ",
"          AA    ",
"                "};