/* XPM */ 
static const char * to_right_xpm[] = {
"16 16 32 1",
" 	c None",
"!	c black",
"#	c #6598CC",
"$	c #6396CA",
"%	c #CCE5FF",
"&	c #5F92C5",
"'	c #5C8FC2",
"(	c #C8E3FF",
")	c #578ABD",
"*	c #C2E1FF",
"+	c #5386B9",
",	c #BCDEFF",
"-	c #4E81B4",
".	c #B5DAFF",
"0	c #497CAF",
"1	c #AED7FF",
"2	c #95BFEB",
"3	c #4477AA",
"4	c #A7D3FF",
"5	c #8EBBEA",
"6	c #4073A6",
"7	c #A1D0FF",
"8	c #89B8E9",
"9	c #3B6EA1",
":	c #9CCEFF",
";	c #84B5E8",
"<	c #386B9E",
"=	c #98CCFF",
">	c #80B3E7",
"?	c #34679A",
"@	c #7FB2E6",
"A	c #326598",
"                ",
"    ##          ",
"    $%$         ",
"    &%%&        ",
"    '((%'       ",
"    )***%)      ",
"    +,,,,%+     ",
"    -.....%-    ",
"    01111120    ",
"    3444453     ",
"    677786      ",
"    9::;9       ",
"    <=><        ",
"    ?@?         ",
"    AA          ",
"                "};